<mxfile host="65bd71144e">
    <diagram id="q8hWWgr2y78qovtoLiXA" name="Страница 1">
        <mxGraphModel dx="788" dy="333" grid="1" gridSize="10" guides="1" tooltips="1" connect="1" arrows="1" fold="1" page="1" pageScale="1" pageWidth="1169" pageHeight="827" math="0" shadow="0">
            <root>
                <mxCell id="0"/>
                <mxCell id="1" parent="0"/>
                <mxCell id="piQN73Hy_sKVR1Ufa1Ei-34" style="edgeStyle=orthogonalEdgeStyle;rounded=0;orthogonalLoop=1;jettySize=auto;html=1;endArrow=none;endFill=0;" parent="1" source="piQN73Hy_sKVR1Ufa1Ei-9" target="piQN73Hy_sKVR1Ufa1Ei-29" edge="1">
                    <mxGeometry relative="1" as="geometry"/>
                </mxCell>
                <mxCell id="piQN73Hy_sKVR1Ufa1Ei-35" value="Выполняет" style="edgeLabel;html=1;align=center;verticalAlign=middle;resizable=0;points=[];" parent="piQN73Hy_sKVR1Ufa1Ei-34" vertex="1" connectable="0">
                    <mxGeometry x="0.24" relative="1" as="geometry">
                        <mxPoint as="offset"/>
                    </mxGeometry>
                </mxCell>
                <mxCell id="piQN73Hy_sKVR1Ufa1Ei-57" style="edgeStyle=orthogonalEdgeStyle;rounded=0;orthogonalLoop=1;jettySize=auto;html=1;entryX=0;entryY=0.5;entryDx=0;entryDy=0;startArrow=none;startFill=0;endArrow=none;endFill=0;" parent="1" source="piQN73Hy_sKVR1Ufa1Ei-9" target="piQN73Hy_sKVR1Ufa1Ei-37" edge="1">
                    <mxGeometry relative="1" as="geometry"/>
                </mxCell>
                <mxCell id="piQN73Hy_sKVR1Ufa1Ei-9" value="Задача" style="swimlane;fontStyle=1;align=center;verticalAlign=top;childLayout=stackLayout;horizontal=1;startSize=26;horizontalStack=0;resizeParent=1;resizeParentMax=0;resizeLast=0;collapsible=1;marginBottom=0;" parent="1" vertex="1">
                    <mxGeometry x="615" y="330" width="160" height="200" as="geometry">
                        <mxRectangle x="350" y="220" width="100" height="26" as="alternateBounds"/>
                    </mxGeometry>
                </mxCell>
                <mxCell id="piQN73Hy_sKVR1Ufa1Ei-10" value="- taskId: int&#xa;- taskName: String&#xa;- taskDetails: String&#xa;- taskStatus: enum" style="text;strokeColor=none;fillColor=none;align=left;verticalAlign=top;spacingLeft=4;spacingRight=4;overflow=hidden;rotatable=0;points=[[0,0.5],[1,0.5]];portConstraint=eastwest;" parent="piQN73Hy_sKVR1Ufa1Ei-9" vertex="1">
                    <mxGeometry y="26" width="160" height="64" as="geometry"/>
                </mxCell>
                <mxCell id="piQN73Hy_sKVR1Ufa1Ei-11" value="" style="line;strokeWidth=1;fillColor=none;align=left;verticalAlign=middle;spacingTop=-1;spacingLeft=3;spacingRight=3;rotatable=0;labelPosition=right;points=[];portConstraint=eastwest;" parent="piQN73Hy_sKVR1Ufa1Ei-9" vertex="1">
                    <mxGeometry y="90" width="160" height="8" as="geometry"/>
                </mxCell>
                <mxCell id="piQN73Hy_sKVR1Ufa1Ei-12" value="+ int getTaskID()&#xa;+ String getTaskName()&#xa;+ String getTaskDetails()&#xa;+ String getTaskStatus()&#xa;+ void setTaskName()&#xa;+ void setTaskDetails()" style="text;strokeColor=none;fillColor=none;align=left;verticalAlign=top;spacingLeft=4;spacingRight=4;overflow=hidden;rotatable=0;points=[[0,0.5],[1,0.5]];portConstraint=eastwest;" parent="piQN73Hy_sKVR1Ufa1Ei-9" vertex="1">
                    <mxGeometry y="98" width="160" height="102" as="geometry"/>
                </mxCell>
                <mxCell id="piQN73Hy_sKVR1Ufa1Ei-13" value="Генератор ID" style="swimlane;fontStyle=1;align=center;verticalAlign=top;childLayout=stackLayout;horizontal=1;startSize=26;horizontalStack=0;resizeParent=1;resizeParentMax=0;resizeLast=0;collapsible=1;marginBottom=0;" parent="1" vertex="1">
                    <mxGeometry x="925" y="406" width="160" height="100" as="geometry">
                        <mxRectangle x="350" y="220" width="100" height="26" as="alternateBounds"/>
                    </mxGeometry>
                </mxCell>
                <mxCell id="piQN73Hy_sKVR1Ufa1Ei-14" value="+ field: type" style="text;strokeColor=none;fillColor=none;align=left;verticalAlign=top;spacingLeft=4;spacingRight=4;overflow=hidden;rotatable=0;points=[[0,0.5],[1,0.5]];portConstraint=eastwest;" parent="piQN73Hy_sKVR1Ufa1Ei-13" vertex="1">
                    <mxGeometry y="26" width="160" height="26" as="geometry"/>
                </mxCell>
                <mxCell id="piQN73Hy_sKVR1Ufa1Ei-15" value="" style="line;strokeWidth=1;fillColor=none;align=left;verticalAlign=middle;spacingTop=-1;spacingLeft=3;spacingRight=3;rotatable=0;labelPosition=right;points=[];portConstraint=eastwest;" parent="piQN73Hy_sKVR1Ufa1Ei-13" vertex="1">
                    <mxGeometry y="52" width="160" height="8" as="geometry"/>
                </mxCell>
                <mxCell id="piQN73Hy_sKVR1Ufa1Ei-16" value="+ int taskNextId();&#xa;+ int userNextId();" style="text;strokeColor=none;fillColor=none;align=left;verticalAlign=top;spacingLeft=4;spacingRight=4;overflow=hidden;rotatable=0;points=[[0,0.5],[1,0.5]];portConstraint=eastwest;" parent="piQN73Hy_sKVR1Ufa1Ei-13" vertex="1">
                    <mxGeometry y="60" width="160" height="40" as="geometry"/>
                </mxCell>
                <mxCell id="piQN73Hy_sKVR1Ufa1Ei-17" style="edgeStyle=orthogonalEdgeStyle;rounded=0;orthogonalLoop=1;jettySize=auto;html=1;entryX=1;entryY=0.5;entryDx=0;entryDy=0;" parent="1" source="piQN73Hy_sKVR1Ufa1Ei-14" target="piQN73Hy_sKVR1Ufa1Ei-10" edge="1">
                    <mxGeometry relative="1" as="geometry"/>
                </mxCell>
                <mxCell id="piQN73Hy_sKVR1Ufa1Ei-26" value="Генерирует ID" style="edgeLabel;html=1;align=center;verticalAlign=middle;resizable=0;points=[];" parent="piQN73Hy_sKVR1Ufa1Ei-17" vertex="1" connectable="0">
                    <mxGeometry x="0.1833" y="1" relative="1" as="geometry">
                        <mxPoint as="offset"/>
                    </mxGeometry>
                </mxCell>
                <mxCell id="piQN73Hy_sKVR1Ufa1Ei-43" style="edgeStyle=orthogonalEdgeStyle;rounded=0;orthogonalLoop=1;jettySize=auto;html=1;entryX=0.469;entryY=0.962;entryDx=0;entryDy=0;entryPerimeter=0;startArrow=classic;startFill=1;endArrow=none;endFill=0;" parent="1" source="piQN73Hy_sKVR1Ufa1Ei-18" target="piQN73Hy_sKVR1Ufa1Ei-25" edge="1">
                    <mxGeometry relative="1" as="geometry">
                        <Array as="points">
                            <mxPoint x="350" y="460"/>
                            <mxPoint x="350" y="460"/>
                        </Array>
                    </mxGeometry>
                </mxCell>
                <mxCell id="piQN73Hy_sKVR1Ufa1Ei-44" value="Включает" style="edgeLabel;html=1;align=center;verticalAlign=middle;resizable=0;points=[];" parent="piQN73Hy_sKVR1Ufa1Ei-43" vertex="1" connectable="0">
                    <mxGeometry x="0.235" y="-2" relative="1" as="geometry">
                        <mxPoint x="-2" y="3" as="offset"/>
                    </mxGeometry>
                </mxCell>
                <mxCell id="piQN73Hy_sKVR1Ufa1Ei-18" value="Подзадача extends Задача" style="swimlane;fontStyle=1;align=center;verticalAlign=top;childLayout=stackLayout;horizontal=1;startSize=26;horizontalStack=0;resizeParent=1;resizeParentMax=0;resizeLast=0;collapsible=1;marginBottom=0;" parent="1" vertex="1">
                    <mxGeometry x="270" y="520" width="160" height="100" as="geometry"/>
                </mxCell>
                <mxCell id="piQN73Hy_sKVR1Ufa1Ei-19" value="- parentTaskId: int" style="text;strokeColor=none;fillColor=none;align=left;verticalAlign=top;spacingLeft=4;spacingRight=4;overflow=hidden;rotatable=0;points=[[0,0.5],[1,0.5]];portConstraint=eastwest;" parent="piQN73Hy_sKVR1Ufa1Ei-18" vertex="1">
                    <mxGeometry y="26" width="160" height="26" as="geometry"/>
                </mxCell>
                <mxCell id="piQN73Hy_sKVR1Ufa1Ei-20" value="" style="line;strokeWidth=1;fillColor=none;align=left;verticalAlign=middle;spacingTop=-1;spacingLeft=3;spacingRight=3;rotatable=0;labelPosition=right;points=[];portConstraint=eastwest;" parent="piQN73Hy_sKVR1Ufa1Ei-18" vertex="1">
                    <mxGeometry y="52" width="160" height="8" as="geometry"/>
                </mxCell>
                <mxCell id="piQN73Hy_sKVR1Ufa1Ei-21" value="+ int getTaskParentID()&#xa;+Task getTaskParent(taskID)" style="text;strokeColor=none;fillColor=none;align=left;verticalAlign=top;spacingLeft=4;spacingRight=4;overflow=hidden;rotatable=0;points=[[0,0.5],[1,0.5]];portConstraint=eastwest;" parent="piQN73Hy_sKVR1Ufa1Ei-18" vertex="1">
                    <mxGeometry y="60" width="160" height="40" as="geometry"/>
                </mxCell>
                <mxCell id="piQN73Hy_sKVR1Ufa1Ei-22" value="Эпик extends Задача" style="swimlane;fontStyle=1;align=center;verticalAlign=top;childLayout=stackLayout;horizontal=1;startSize=26;horizontalStack=0;resizeParent=1;resizeParentMax=0;resizeLast=0;collapsible=1;marginBottom=0;" parent="1" vertex="1">
                    <mxGeometry x="275" y="340" width="160" height="100" as="geometry"/>
                </mxCell>
                <mxCell id="piQN73Hy_sKVR1Ufa1Ei-23" value="- subtasksList: List" style="text;strokeColor=none;fillColor=none;align=left;verticalAlign=top;spacingLeft=4;spacingRight=4;overflow=hidden;rotatable=0;points=[[0,0.5],[1,0.5]];portConstraint=eastwest;" parent="piQN73Hy_sKVR1Ufa1Ei-22" vertex="1">
                    <mxGeometry y="26" width="160" height="26" as="geometry"/>
                </mxCell>
                <mxCell id="piQN73Hy_sKVR1Ufa1Ei-24" value="" style="line;strokeWidth=1;fillColor=none;align=left;verticalAlign=middle;spacingTop=-1;spacingLeft=3;spacingRight=3;rotatable=0;labelPosition=right;points=[];portConstraint=eastwest;" parent="piQN73Hy_sKVR1Ufa1Ei-22" vertex="1">
                    <mxGeometry y="52" width="160" height="8" as="geometry"/>
                </mxCell>
                <mxCell id="piQN73Hy_sKVR1Ufa1Ei-25" value="+ Task getChildById(taskId)&#xa;+ Task getAllChildren()" style="text;strokeColor=none;fillColor=none;align=left;verticalAlign=top;spacingLeft=4;spacingRight=4;overflow=hidden;rotatable=0;points=[[0,0.5],[1,0.5]];portConstraint=eastwest;" parent="piQN73Hy_sKVR1Ufa1Ei-22" vertex="1">
                    <mxGeometry y="60" width="160" height="40" as="geometry"/>
                </mxCell>
                <mxCell id="piQN73Hy_sKVR1Ufa1Ei-27" style="edgeStyle=orthogonalEdgeStyle;rounded=0;orthogonalLoop=1;jettySize=auto;html=1;entryX=0;entryY=0.5;entryDx=0;entryDy=0;endArrow=diamondThin;endFill=0;" parent="1" source="piQN73Hy_sKVR1Ufa1Ei-23" target="piQN73Hy_sKVR1Ufa1Ei-10" edge="1">
                    <mxGeometry relative="1" as="geometry">
                        <Array as="points">
                            <mxPoint x="525" y="379"/>
                            <mxPoint x="525" y="388"/>
                        </Array>
                    </mxGeometry>
                </mxCell>
                <mxCell id="piQN73Hy_sKVR1Ufa1Ei-28" style="edgeStyle=orthogonalEdgeStyle;rounded=0;orthogonalLoop=1;jettySize=auto;html=1;endArrow=diamondThin;endFill=0;" parent="1" source="piQN73Hy_sKVR1Ufa1Ei-19" target="piQN73Hy_sKVR1Ufa1Ei-10" edge="1">
                    <mxGeometry relative="1" as="geometry"/>
                </mxCell>
                <mxCell id="piQN73Hy_sKVR1Ufa1Ei-29" value="Пользователь" style="swimlane;fontStyle=1;align=center;verticalAlign=top;childLayout=stackLayout;horizontal=1;startSize=26;horizontalStack=0;resizeParent=1;resizeParentMax=0;resizeLast=0;collapsible=1;marginBottom=0;" parent="1" vertex="1">
                    <mxGeometry x="615" y="616" width="160" height="170" as="geometry"/>
                </mxCell>
                <mxCell id="piQN73Hy_sKVR1Ufa1Ei-30" value="- userId: int&#xa;- userName: String&#xa;- userPosition: String" style="text;strokeColor=none;fillColor=none;align=left;verticalAlign=top;spacingLeft=4;spacingRight=4;overflow=hidden;rotatable=0;points=[[0,0.5],[1,0.5]];portConstraint=eastwest;" parent="piQN73Hy_sKVR1Ufa1Ei-29" vertex="1">
                    <mxGeometry y="26" width="160" height="54" as="geometry"/>
                </mxCell>
                <mxCell id="piQN73Hy_sKVR1Ufa1Ei-31" value="" style="line;strokeWidth=1;fillColor=none;align=left;verticalAlign=middle;spacingTop=-1;spacingLeft=3;spacingRight=3;rotatable=0;labelPosition=right;points=[];portConstraint=eastwest;" parent="piQN73Hy_sKVR1Ufa1Ei-29" vertex="1">
                    <mxGeometry y="80" width="160" height="8" as="geometry"/>
                </mxCell>
                <mxCell id="piQN73Hy_sKVR1Ufa1Ei-32" value="+ int getUserID()&#xa;+ String getUserName()&#xa;+String getUserPosition()&#xa;+ void setUserName()&#xa;+ void setUserPosition()" style="text;strokeColor=none;fillColor=none;align=left;verticalAlign=top;spacingLeft=4;spacingRight=4;overflow=hidden;rotatable=0;points=[[0,0.5],[1,0.5]];portConstraint=eastwest;" parent="piQN73Hy_sKVR1Ufa1Ei-29" vertex="1">
                    <mxGeometry y="88" width="160" height="82" as="geometry"/>
                </mxCell>
                <mxCell id="piQN73Hy_sKVR1Ufa1Ei-36" value="enum Статус задачи" style="swimlane;fontStyle=1;align=center;verticalAlign=top;childLayout=stackLayout;horizontal=1;startSize=26;horizontalStack=0;resizeParent=1;resizeParentMax=0;resizeLast=0;collapsible=1;marginBottom=0;" parent="1" vertex="1">
                    <mxGeometry x="825" y="200" width="160" height="60" as="geometry"/>
                </mxCell>
                <mxCell id="piQN73Hy_sKVR1Ufa1Ei-37" value="+ status: String" style="text;strokeColor=none;fillColor=none;align=left;verticalAlign=top;spacingLeft=4;spacingRight=4;overflow=hidden;rotatable=0;points=[[0,0.5],[1,0.5]];portConstraint=eastwest;" parent="piQN73Hy_sKVR1Ufa1Ei-36" vertex="1">
                    <mxGeometry y="26" width="160" height="26" as="geometry"/>
                </mxCell>
                <mxCell id="piQN73Hy_sKVR1Ufa1Ei-38" value="" style="line;strokeWidth=1;fillColor=none;align=left;verticalAlign=middle;spacingTop=-1;spacingLeft=3;spacingRight=3;rotatable=0;labelPosition=right;points=[];portConstraint=eastwest;" parent="piQN73Hy_sKVR1Ufa1Ei-36" vertex="1">
                    <mxGeometry y="52" width="160" height="8" as="geometry"/>
                </mxCell>
                <mxCell id="piQN73Hy_sKVR1Ufa1Ei-46" style="edgeStyle=orthogonalEdgeStyle;rounded=0;orthogonalLoop=1;jettySize=auto;html=1;entryX=0.506;entryY=0.962;entryDx=0;entryDy=0;entryPerimeter=0;startArrow=classic;startFill=1;endArrow=none;endFill=0;" parent="1" source="piQN73Hy_sKVR1Ufa1Ei-30" target="piQN73Hy_sKVR1Ufa1Ei-16" edge="1">
                    <mxGeometry relative="1" as="geometry">
                        <Array as="points">
                            <mxPoint x="1006" y="695"/>
                        </Array>
                    </mxGeometry>
                </mxCell>
                <mxCell id="piQN73Hy_sKVR1Ufa1Ei-47" value="Генерирует ID" style="edgeLabel;html=1;align=center;verticalAlign=middle;resizable=0;points=[];" parent="piQN73Hy_sKVR1Ufa1Ei-46" vertex="1" connectable="0">
                    <mxGeometry x="-0.3682" y="-3" relative="1" as="geometry">
                        <mxPoint as="offset"/>
                    </mxGeometry>
                </mxCell>
                <mxCell id="piQN73Hy_sKVR1Ufa1Ei-52" style="edgeStyle=orthogonalEdgeStyle;rounded=0;orthogonalLoop=1;jettySize=auto;html=1;entryX=0.25;entryY=0;entryDx=0;entryDy=0;startArrow=none;startFill=0;endArrow=classic;endFill=1;" parent="1" source="piQN73Hy_sKVR1Ufa1Ei-48" target="piQN73Hy_sKVR1Ufa1Ei-9" edge="1">
                    <mxGeometry relative="1" as="geometry"/>
                </mxCell>
                <mxCell id="piQN73Hy_sKVR1Ufa1Ei-53" value="Управляет" style="edgeLabel;html=1;align=center;verticalAlign=middle;resizable=0;points=[];" parent="piQN73Hy_sKVR1Ufa1Ei-52" vertex="1" connectable="0">
                    <mxGeometry x="-0.365" y="-3" relative="1" as="geometry">
                        <mxPoint as="offset"/>
                    </mxGeometry>
                </mxCell>
                <mxCell id="piQN73Hy_sKVR1Ufa1Ei-56" style="edgeStyle=orthogonalEdgeStyle;rounded=0;orthogonalLoop=1;jettySize=auto;html=1;exitX=1;exitY=0.25;exitDx=0;exitDy=0;entryX=0.5;entryY=0;entryDx=0;entryDy=0;startArrow=none;startFill=0;endArrow=classic;endFill=1;" parent="1" source="piQN73Hy_sKVR1Ufa1Ei-48" target="piQN73Hy_sKVR1Ufa1Ei-36" edge="1">
                    <mxGeometry relative="1" as="geometry"/>
                </mxCell>
                <mxCell id="piQN73Hy_sKVR1Ufa1Ei-58" value="Назначает" style="edgeLabel;html=1;align=center;verticalAlign=middle;resizable=0;points=[];" parent="piQN73Hy_sKVR1Ufa1Ei-56" vertex="1" connectable="0">
                    <mxGeometry x="0.1893" y="-1" relative="1" as="geometry">
                        <mxPoint y="1" as="offset"/>
                    </mxGeometry>
                </mxCell>
                <mxCell id="piQN73Hy_sKVR1Ufa1Ei-48" value="Менеджер задач" style="swimlane;fontStyle=1;align=center;verticalAlign=top;childLayout=stackLayout;horizontal=1;startSize=26;horizontalStack=0;resizeParent=1;resizeParentMax=0;resizeLast=0;collapsible=1;marginBottom=0;" parent="1" vertex="1">
                    <mxGeometry x="275" y="70" width="220" height="230" as="geometry"/>
                </mxCell>
                <mxCell id="piQN73Hy_sKVR1Ufa1Ei-49" value="- tasks: HashMap&#xa;- assignedTasks: HashMap" style="text;strokeColor=none;fillColor=none;align=left;verticalAlign=top;spacingLeft=4;spacingRight=4;overflow=hidden;rotatable=0;points=[[0,0.5],[1,0.5]];portConstraint=eastwest;" parent="piQN73Hy_sKVR1Ufa1Ei-48" vertex="1">
                    <mxGeometry y="26" width="220" height="34" as="geometry"/>
                </mxCell>
                <mxCell id="piQN73Hy_sKVR1Ufa1Ei-50" value="" style="line;strokeWidth=1;fillColor=none;align=left;verticalAlign=middle;spacingTop=-1;spacingLeft=3;spacingRight=3;rotatable=0;labelPosition=right;points=[];portConstraint=eastwest;" parent="piQN73Hy_sKVR1Ufa1Ei-48" vertex="1">
                    <mxGeometry y="60" width="220" height="8" as="geometry"/>
                </mxCell>
                <mxCell id="piQN73Hy_sKVR1Ufa1Ei-51" value="+ Task createTask(name,detail,status)&#xa;+ void addTask(task)&#xa;+ void removeTask(task)&#xa;+ void assignTask(task,user)&#xa;+ Task findTaskById(taskId)&#xa;+ Task listTasks()&#xa;+ Task deletAllTasks()&#xa;+ Task updateTask()&#xa;+ Task includeTaskToEpic(task,epic)&#xa;+ void updateEpicStatus(epicId)&#xa;&#xa;&#xa;" style="text;strokeColor=none;fillColor=none;align=left;verticalAlign=top;spacingLeft=4;spacingRight=4;overflow=hidden;rotatable=0;points=[[0,0.5],[1,0.5]];portConstraint=eastwest;" parent="piQN73Hy_sKVR1Ufa1Ei-48" vertex="1">
                    <mxGeometry y="68" width="220" height="162" as="geometry"/>
                </mxCell>
                <mxCell id="piQN73Hy_sKVR1Ufa1Ei-54" style="edgeStyle=orthogonalEdgeStyle;rounded=0;orthogonalLoop=1;jettySize=auto;html=1;entryX=0;entryY=0.5;entryDx=0;entryDy=0;startArrow=none;startFill=0;endArrow=classic;endFill=1;" parent="1" source="piQN73Hy_sKVR1Ufa1Ei-30" target="piQN73Hy_sKVR1Ufa1Ei-49" edge="1">
                    <mxGeometry relative="1" as="geometry">
                        <Array as="points">
                            <mxPoint x="170" y="681"/>
                            <mxPoint x="170" y="113"/>
                        </Array>
                    </mxGeometry>
                </mxCell>
                <mxCell id="piQN73Hy_sKVR1Ufa1Ei-55" value="Text" style="edgeLabel;html=1;align=center;verticalAlign=middle;resizable=0;points=[];" parent="piQN73Hy_sKVR1Ufa1Ei-54" vertex="1" connectable="0">
                    <mxGeometry x="0.1622" y="-2" relative="1" as="geometry">
                        <mxPoint as="offset"/>
                    </mxGeometry>
                </mxCell>
                <mxCell id="piQN73Hy_sKVR1Ufa1Ei-60" value="Инициирует&amp;nbsp;&lt;br&gt;обновление&lt;br&gt;задачи" style="edgeLabel;html=1;align=center;verticalAlign=middle;resizable=0;points=[];" parent="piQN73Hy_sKVR1Ufa1Ei-54" vertex="1" connectable="0">
                    <mxGeometry x="0.1658" y="-2" relative="1" as="geometry">
                        <mxPoint as="offset"/>
                    </mxGeometry>
                </mxCell>
                <mxCell id="piQN73Hy_sKVR1Ufa1Ei-61" style="edgeStyle=orthogonalEdgeStyle;rounded=0;orthogonalLoop=1;jettySize=auto;html=1;entryX=0;entryY=0.5;entryDx=0;entryDy=0;startArrow=none;startFill=0;endArrow=classic;endFill=1;" parent="1" source="piQN73Hy_sKVR1Ufa1Ei-51" target="piQN73Hy_sKVR1Ufa1Ei-23" edge="1">
                    <mxGeometry relative="1" as="geometry">
                        <Array as="points">
                            <mxPoint x="210" y="204"/>
                            <mxPoint x="210" y="379"/>
                        </Array>
                    </mxGeometry>
                </mxCell>
                <mxCell id="piQN73Hy_sKVR1Ufa1Ei-62" value="Управляет" style="edgeLabel;html=1;align=center;verticalAlign=middle;resizable=0;points=[];" parent="piQN73Hy_sKVR1Ufa1Ei-61" vertex="1" connectable="0">
                    <mxGeometry x="0.2395" relative="1" as="geometry">
                        <mxPoint as="offset"/>
                    </mxGeometry>
                </mxCell>
                <mxCell id="piQN73Hy_sKVR1Ufa1Ei-63" value="1, Диаграмма классов &quot;&quot;Простой менеджер задач" style="text;html=1;strokeColor=none;fillColor=none;align=center;verticalAlign=middle;whiteSpace=wrap;rounded=0;fontStyle=1;fontSize=13;" parent="1" vertex="1">
                    <mxGeometry x="20" y="20" width="360" height="20" as="geometry"/>
                </mxCell>
            </root>
        </mxGraphModel>
    </diagram>
</mxfile>